<?xml version="1.0" encoding="UTF-8" standalone="no"?>
<!-- Created with Inkscape (http://www.inkscape.org/) -->

<svg
   xmlns:dc="http://purl.org/dc/elements/1.1/"
   xmlns:cc="http://creativecommons.org/ns#"
   xmlns:rdf="http://www.w3.org/1999/02/22-rdf-syntax-ns#"
   xmlns:svg="http://www.w3.org/2000/svg"
   xmlns="http://www.w3.org/2000/svg"
   version="1.1"
   width="744.09448"
   height="1052.3622"
   id="svg2">
  <defs
     id="defs3" />
  <metadata
     id="metadata6">
    <rdf:RDF>
      <cc:Work
         rdf:about="">
        <dc:format>image/svg+xml</dc:format>
        <dc:type
           rdf:resource="http://purl.org/dc/dcmitype/StillImage" />
        <dc:title></dc:title>
      </cc:Work>
    </rdf:RDF>
  </metadata>
  <g
     id="layer1">
    <path
       d="m 273.83929,353.60293 0,22.69707 m -11.51786,-11.16997 22.94643,0 m 0.0893,0 c 0,6.36114 -5.15673,11.51786 -11.51786,11.51786 -6.36114,0 -11.51786,-5.15672 -11.51786,-11.51786 0,-6.36114 5.15672,-11.51786 11.51786,-11.51786 6.36113,0 11.51786,5.15672 11.51786,11.51786 z"
       id="path3783"
       style="fill:none;stroke:#000000;stroke-width:0.99070442px;stroke-linecap:butt;stroke-linejoin:miter;stroke-opacity:1" />
    <path
       d="m 334.51465,353.59565 0,22.69707 m -11.51786,-11.16997 22.94643,0 m 0.0893,0 c 0,6.36114 -5.15673,11.51786 -11.51786,11.51786 -6.36114,0 -11.51786,-5.15672 -11.51786,-11.51786 0,-6.36114 5.15672,-11.51786 11.51786,-11.51786 6.36113,0 11.51786,5.15672 11.51786,11.51786 z"
       id="path3783-3"
       style="fill:none;stroke:#000000;stroke-width:0.99070442px;stroke-linecap:butt;stroke-linejoin:miter;stroke-opacity:1" />
    <path
       d="m 273.66072,326.31504 19.35687,-33.52709 m -36.43884,71.91289 c -1.26269,0 -35.86042,0 -35.86042,0 l 0,-38.13326 175.00893,0 0,38.20531 -44.69925,0 m -60.10408,-0.53664 26.39024,0 m 17.07548,-17.83728 c -9.55872,0 -17.26288,7.97559 -17.46875,17.8125 l -0.0312,0.5 0.53125,0 0.25,0 0.0312,-0.40625 c 0.19684,-9.40586 7.54765,-17.03125 16.6875,-17.03125 9.13986,0 16.55314,7.62539 16.75,17.03125 l 0,0.40625 0.25,0 0.5,0 0,-0.5 c -0.20588,-9.83691 -7.94128,-17.8125 -17.5,-17.8125 z m -60.67536,0.007 c -9.55872,0 -17.26288,7.97559 -17.46875,17.8125 l -0.0312,0.5 0.53125,0 0.25,0 0.0312,-0.40625 c 0.19684,-9.40586 7.54765,-17.03125 16.6875,-17.03125 9.13986,0 16.55314,7.62539 16.75,17.03125 l 0,0.40625 0.25,0 0.5,0 0,-0.5 c -0.20588,-9.83691 -7.94128,-17.8125 -17.5,-17.8125 z"
       id="path3961"
       style="fill:none;stroke:#000000;stroke-width:1px;stroke-linecap:butt;stroke-linejoin:miter;stroke-opacity:1" />
  </g>
</svg>
